<svg xmlns="http://www.w3.org/2000/svg" width="152" height="57" viewBox="0 0 152 57" fill="none">
<path d="M73.3711 32.5234C73.3711 31.8594 73.1367 31.3516 72.668 31C72.1992 30.6406 71.3555 30.2656 70.1367 29.875C68.918 29.4766 67.9531 29.0859 67.2422 28.7031C65.3047 27.6562 64.3359 26.2461 64.3359 24.4727C64.3359 23.5508 64.5938 22.7305 65.1094 22.0117C65.6328 21.2852 66.3789 20.7188 67.3477 20.3125C68.3242 19.9062 69.418 19.7031 70.6289 19.7031C71.8477 19.7031 72.9336 19.9258 73.8867 20.3711C74.8398 20.8086 75.5781 21.4297 76.1016 22.2344C76.6328 23.0391 76.8984 23.9531 76.8984 24.9766H73.3828C73.3828 24.1953 73.1367 23.5898 72.6445 23.1602C72.1523 22.7227 71.4609 22.5039 70.5703 22.5039C69.7109 22.5039 69.043 22.6875 68.5664 23.0547C68.0898 23.4141 67.8516 23.8906 67.8516 24.4844C67.8516 25.0391 68.1289 25.5039 68.6836 25.8789C69.2461 26.2539 70.0703 26.6055 71.1562 26.9336C73.1562 27.5352 74.6133 28.2812 75.5273 29.1719C76.4414 30.0625 76.8984 31.1719 76.8984 32.5C76.8984 33.9766 76.3398 35.1367 75.2227 35.9805C74.1055 36.8164 72.6016 37.2344 70.7109 37.2344C69.3984 37.2344 68.2031 36.9961 67.125 36.5195C66.0469 36.0352 65.2227 35.375 64.6523 34.5391C64.0898 33.7031 63.8086 32.7344 63.8086 31.6328H67.3359C67.3359 33.5156 68.4609 34.457 70.7109 34.457C71.5469 34.457 72.1992 34.2891 72.668 33.9531C73.1367 33.6094 73.3711 33.1328 73.3711 32.5234ZM90.4805 30.7773C90.4805 32.7305 90.0352 34.2969 89.1445 35.4766C88.2617 36.6484 87.0664 37.2344 85.5586 37.2344C84.2773 37.2344 83.2422 36.7891 82.4531 35.8984V41.875H79.0664V24.3203H82.207L82.3242 25.5625C83.1445 24.5781 84.2148 24.0859 85.5352 24.0859C87.0977 24.0859 88.3125 24.6641 89.1797 25.8203C90.0469 26.9766 90.4805 28.5703 90.4805 30.6016V30.7773ZM87.0938 30.5312C87.0938 29.3516 86.8828 28.4414 86.4609 27.8008C86.0469 27.1602 85.4414 26.8398 84.6445 26.8398C83.582 26.8398 82.8516 27.2461 82.4531 28.0586V33.25C82.8672 34.0859 83.6055 34.5039 84.668 34.5039C86.2852 34.5039 87.0938 33.1797 87.0938 30.5312ZM92.0625 30.543C92.0625 29.2852 92.3047 28.1641 92.7891 27.1797C93.2734 26.1953 93.9688 25.4336 94.875 24.8945C95.7891 24.3555 96.8477 24.0859 98.0508 24.0859C99.7617 24.0859 101.156 24.6094 102.234 25.6562C103.32 26.7031 103.926 28.125 104.051 29.9219L104.074 30.7891C104.074 32.7344 103.531 34.2969 102.445 35.4766C101.359 36.6484 99.9023 37.2344 98.0742 37.2344C96.2461 37.2344 94.7852 36.6484 93.6914 35.4766C92.6055 34.3047 92.0625 32.7109 92.0625 30.6953V30.543ZM95.4492 30.7891C95.4492 31.9922 95.6758 32.9141 96.1289 33.5547C96.582 34.1875 97.2305 34.5039 98.0742 34.5039C98.8945 34.5039 99.5352 34.1914 99.9961 33.5664C100.457 32.9336 100.688 31.9258 100.688 30.543C100.688 29.3633 100.457 28.4492 99.9961 27.8008C99.5352 27.1523 98.8867 26.8281 98.0508 26.8281C97.2227 26.8281 96.582 27.1523 96.1289 27.8008C95.6758 28.4414 95.4492 29.4375 95.4492 30.7891ZM113.285 27.4961C112.824 27.4336 112.418 27.4023 112.066 27.4023C110.785 27.4023 109.945 27.8359 109.547 28.7031V37H106.16V24.3203H109.359L109.453 25.832C110.133 24.668 111.074 24.0859 112.277 24.0859C112.652 24.0859 113.004 24.1367 113.332 24.2383L113.285 27.4961ZM119.566 21.2031V24.3203H121.734V26.8047H119.566V33.1328C119.566 33.6016 119.656 33.9375 119.836 34.1406C120.016 34.3438 120.359 34.4453 120.867 34.4453C121.242 34.4453 121.574 34.418 121.863 34.3633V36.9297C121.199 37.1328 120.516 37.2344 119.812 37.2344C117.438 37.2344 116.227 36.0352 116.18 33.6367V26.8047H114.328V24.3203H116.18V21.2031H119.566ZM127.195 37H123.797V24.3203H127.195V37ZM123.598 21.0391C123.598 20.5312 123.766 20.1133 124.102 19.7852C124.445 19.457 124.91 19.293 125.496 19.293C126.074 19.293 126.535 19.457 126.879 19.7852C127.223 20.1133 127.395 20.5312 127.395 21.0391C127.395 21.5547 127.219 21.9766 126.867 22.3047C126.523 22.6328 126.066 22.7969 125.496 22.7969C124.926 22.7969 124.465 22.6328 124.113 22.3047C123.77 21.9766 123.598 21.5547 123.598 21.0391ZM130.922 37V26.8047H129.035V24.3203H130.922V23.2422C130.922 21.8203 131.328 20.7188 132.141 19.9375C132.961 19.1484 134.105 18.7539 135.574 18.7539C136.043 18.7539 136.617 18.832 137.297 18.9883L137.262 21.6133C136.98 21.543 136.637 21.5078 136.23 21.5078C134.957 21.5078 134.32 22.1055 134.32 23.3008V24.3203H136.84V26.8047H134.32V37H130.922ZM143.332 32.207L145.676 24.3203H149.309L144.211 38.9688L143.93 39.6367C143.172 41.293 141.922 42.1211 140.18 42.1211C139.688 42.1211 139.188 42.0469 138.68 41.8984V39.332L139.195 39.3438C139.836 39.3438 140.312 39.2461 140.625 39.0508C140.945 38.8555 141.195 38.5312 141.375 38.0781L141.773 37.0352L137.332 24.3203H140.977L143.332 32.207Z" fill="black"/>
<ellipse cx="24.5" cy="28" rx="24.5" ry="24" fill="#3F51B5"/>
<path d="M39.4665 28.7771C39.3907 28.6516 39.275 28.5646 39.1453 28.523C38.8599 28.4225 37.0397 27.834 35.6564 28.6163C35.693 28.2462 35.7109 27.8743 35.7101 27.502C36.4081 27.3791 37.6941 27.0175 38.4094 25.981C39.3377 24.6348 38.8983 22.802 38.8271 22.5345C38.7958 22.406 38.721 22.2873 38.6063 22.2026C38.4867 22.1142 38.3442 22.0784 38.2069 22.0907C37.9207 22.11 35.9533 22.2907 35.0261 23.6345V23.6344C35.022 23.6403 35.0185 23.6464 35.0145 23.6524C34.9018 23.3473 34.7766 23.0474 34.638 22.754C35.2545 22.3703 36.253 21.5865 36.5366 20.4096C36.919 18.8206 35.8532 17.2711 35.6879 17.0435C35.6163 16.94 35.5108 16.8588 35.3813 16.8184C35.2325 16.7721 35.0791 16.7882 34.9494 16.852C34.7047 16.9657 33.1385 17.7401 32.6257 19.1404C32.5576 18.4066 32.3249 17.4176 31.6175 16.7233C30.4527 15.5807 28.5764 15.697 28.2953 15.7218C28.1687 15.7298 28.0438 15.7789 27.9425 15.8697C27.8255 15.9743 27.7603 16.116 27.7495 16.2618C27.7181 16.5653 27.5674 18.5175 28.7266 19.6551H28.7266C29.5916 20.5041 30.8873 20.6352 31.6045 20.6352C31.6747 20.6352 31.739 20.6339 31.7971 20.6319C31.8142 20.6572 31.8327 20.6819 31.8542 20.7048C31.9331 20.7894 32.0099 20.8752 32.0854 20.9621C30.7279 20.6934 29.3803 21.3545 29.1678 21.4653C29.0478 21.5247 28.9474 21.6255 28.8904 21.758C28.8325 21.8926 28.8291 22.0371 28.8704 22.1667C28.9517 22.4417 29.5566 24.3223 31.0711 24.9343C31.144 24.9638 31.2174 24.9887 31.2911 25.0115C31.2798 25.0122 31.2697 25.0129 31.2612 25.0135C31.1213 25.0202 30.9833 25.0771 30.8764 25.184C30.7756 25.2848 30.7193 25.4132 30.7077 25.5449C30.6719 25.8465 30.4914 27.7976 31.6339 28.9527H31.6339C31.6958 29.0153 31.7602 29.0738 31.8264 29.1291C31.3805 28.8878 31.006 28.7633 30.8947 28.7291C30.7599 28.6843 30.6086 28.6881 30.469 28.7513C30.3429 28.8085 30.2467 28.905 30.1887 29.0198C30.0523 29.2748 29.1639 31.0369 29.8107 32.5346C29.8241 32.5657 29.839 32.5957 29.8534 32.6259C29.5648 32.1692 29.2759 31.8601 29.1951 31.7772C29.0949 31.6702 28.9547 31.6007 28.7975 31.5929C28.6636 31.5866 28.5389 31.6249 28.4367 31.6955C28.1912 31.8561 26.5705 32.9745 26.4199 34.5978C26.326 35.609 26.8138 36.5362 27.2409 37.1373C26.379 37.3794 25.4821 37.5068 24.5741 37.5101C23.6766 37.504 22.79 37.3766 21.9377 37.1371C22.3648 36.5359 22.8526 35.6091 22.7587 34.5978C22.6094 32.989 21.0161 31.876 20.7484 31.6997C20.6449 31.6263 20.5169 31.5863 20.3812 31.5928C20.2256 31.6006 20.0868 31.6686 19.9869 31.7738C19.9075 31.8551 19.616 32.1658 19.3252 32.6261C19.3396 32.5957 19.3545 32.5657 19.3679 32.5345C20.009 31.0503 19.1421 29.3061 18.9934 29.0264C18.9358 28.9087 18.8384 28.8096 18.7098 28.7512C18.5719 28.6888 18.4227 28.6843 18.2893 28.7274C18.1826 28.7601 17.8037 28.8848 17.3519 29.1294C17.4182 29.074 17.4827 29.0155 17.5448 28.9527C18.6815 27.8034 18.5086 25.8663 18.4715 25.5491C18.4605 25.416 18.4041 25.2859 18.3022 25.184C18.197 25.0787 18.0616 25.0221 17.9238 25.0139C17.9141 25.0132 17.9014 25.0124 17.8874 25.0115C17.9612 24.9887 18.0346 24.9638 18.1075 24.9343C19.6073 24.3282 20.2151 22.478 20.3058 22.1746C20.3499 22.043 20.3475 21.8954 20.2884 21.758C20.2317 21.6266 20.1326 21.5265 20.0138 21.4669C19.8037 21.3572 18.453 20.6931 17.0925 20.9629C17.1681 20.8758 17.2453 20.7897 17.3244 20.7049C17.3458 20.6819 17.3644 20.6572 17.3815 20.632C17.4396 20.6339 17.504 20.6352 17.5742 20.6352C18.2914 20.6352 19.5871 20.5041 20.452 19.6552C21.607 18.5217 21.4615 16.5796 21.4294 16.2648C21.4192 16.118 21.3538 15.9752 21.2361 15.8698C21.138 15.7821 21.0181 15.7333 20.8957 15.723C20.6529 15.7006 18.7418 15.5655 17.5609 16.7236C16.8535 17.4179 16.6208 18.4068 16.5528 19.1407C16.0455 17.7552 14.5069 16.9825 14.2369 16.8559C14.1056 16.7889 13.9489 16.7713 13.7972 16.8185C13.6688 16.8585 13.564 16.9388 13.4924 17.0412C13.3307 17.2636 12.2587 18.8168 12.642 20.41C12.9257 21.5871 13.9242 22.3706 14.5406 22.7542C14.402 23.0476 14.2769 23.3475 14.1641 23.6527C14.1601 23.6468 14.1565 23.6407 14.1525 23.6348C13.2343 22.3041 11.2963 22.114 10.98 22.0916C10.8404 22.0769 10.6943 22.1127 10.5722 22.2028C10.4587 22.2867 10.3842 22.404 10.3525 22.5312C10.2826 22.7925 9.83836 24.6315 10.7694 25.9815C11.4846 27.0181 12.7708 27.3796 13.4685 27.5024C13.4678 27.8746 13.4856 28.2465 13.5222 28.6166C12.1404 27.8351 10.3229 28.4214 10.036 28.5223C9.90528 28.5637 9.78851 28.651 9.71212 28.7775C9.63469 28.9057 9.6123 29.052 9.63825 29.1886C9.6756 29.3971 10.056 31.3237 11.4644 32.1812C12.0335 32.5276 12.6716 32.6363 13.2483 32.6362C13.7994 32.6362 14.2935 32.537 14.6182 32.4511C14.6766 32.5699 14.737 32.6872 14.7992 32.8031C14.6058 32.7618 14.4056 32.7376 14.1995 32.7376C14.1872 32.7376 14.1745 32.7376 14.1622 32.7378C12.5392 32.76 11.2742 34.2632 11.0754 34.5127C10.9879 34.6149 10.935 34.7476 10.935 34.8928C10.935 35.0478 10.9955 35.1888 11.0941 35.2934C11.2512 35.4657 12.5689 36.8549 14.1905 36.8548C14.2032 36.8548 14.216 36.8547 14.2285 36.8546C15.3934 36.8386 16.364 36.077 16.8901 35.5597C17.1407 35.8003 17.4018 36.0282 17.6722 36.2431C17.5305 36.275 17.3894 36.3173 17.25 36.3728C15.7416 36.9736 15.0975 38.8298 15.001 39.1338C14.9533 39.268 14.9542 39.4199 15.0149 39.5609C15.0731 39.6962 15.1764 39.7983 15.2998 39.8572C15.4552 39.9346 16.4571 40.4106 17.5803 40.4106C17.9766 40.4106 18.3883 40.3512 18.783 40.1942C19.276 39.9978 19.6746 39.6754 19.9918 39.3193C19.439 40.3984 19.4767 41.6553 19.4905 41.9023C19.4935 42.0359 19.5421 42.1692 19.6378 42.2771C19.7357 42.3874 19.8661 42.4519 20.0019 42.4689C20.0086 42.4698 20.2147 42.4942 20.5358 42.4942C21.2701 42.4942 22.6056 42.3661 23.5287 41.5336C24.1462 40.9762 24.446 40.2171 24.5893 39.5522C24.7327 40.2171 25.0324 40.9763 25.6501 41.5337C26.5731 42.3662 27.9085 42.4943 28.6428 42.4942C28.8976 42.4942 29.0801 42.4788 29.1479 42.472C29.2939 42.461 29.4361 42.3953 29.541 42.2771C29.6362 42.1699 29.6847 42.0373 29.6881 41.9043C29.7019 41.657 29.74 40.3988 29.1867 39.319C29.5039 39.6752 29.9027 39.9977 30.3959 40.1942C30.7906 40.3513 31.202 40.4106 31.5984 40.4106C32.7128 40.4106 33.7083 39.9418 33.8752 39.8591C34.0002 39.8004 34.1049 39.6976 34.1637 39.561C34.2234 39.4224 34.2252 39.2735 34.1799 39.141C34.0895 38.854 33.4468 36.9776 31.9286 36.3729C31.7891 36.3174 31.6478 36.2752 31.506 36.2433C31.7765 36.0283 32.0376 35.8003 32.2884 35.5596C32.8144 36.077 33.7851 36.8387 34.9501 36.8547C34.9629 36.8549 34.9755 36.8549 34.9881 36.8549C36.5949 36.8549 37.9037 35.4906 38.0799 35.2985C38.1812 35.1934 38.2436 35.0504 38.2436 34.8929C38.2436 34.7491 38.1916 34.6174 38.1054 34.5156C37.91 34.2701 36.6429 32.7601 35.0164 32.7379C35.0039 32.7377 34.9915 32.7377 34.9791 32.7377C34.7733 32.7377 34.573 32.7614 34.3797 32.8027C34.4417 32.687 34.502 32.5699 34.5603 32.4514C34.885 32.5372 35.3791 32.6364 35.9303 32.6364C36.5069 32.6364 37.1453 32.5277 37.7144 32.1814C39.0999 31.3377 39.4905 29.4591 39.5383 29.2002C39.5677 29.0599 39.5462 28.909 39.4665 28.7771ZM29.5454 18.8208C29.0551 18.3397 28.9083 17.5054 28.8939 16.8822C29.4288 16.9073 30.2672 17.036 30.799 17.5576C31.3017 18.0509 31.454 18.8833 31.4821 19.465C30.937 19.4526 30.0768 19.3424 29.5454 18.8208ZM18.3797 17.5578C18.9114 17.0362 19.7494 16.9074 20.2849 16.8824C20.2705 17.5055 20.1235 18.3398 19.6334 18.8208C19.102 19.3424 18.2417 19.4526 17.6967 19.4649C17.7248 18.8833 17.8771 18.051 18.3797 17.5578ZM13.4937 26.3167C12.9254 26.1894 12.1314 25.8968 11.7316 25.3174C11.3087 24.7041 11.3251 23.8566 11.3921 23.3249C12.0038 23.4459 12.8008 23.7335 13.1905 24.2984C13.6135 24.9112 13.5748 25.7777 13.4937 26.3167ZM12.0722 31.1825C11.4363 30.7953 11.09 30.0102 10.9222 29.4899C11.4736 29.3708 12.3577 29.273 12.9887 29.657C13.6248 30.0441 13.9429 30.851 14.0886 31.3762C13.5179 31.4919 12.6736 31.5485 12.0722 31.1825ZM16.9935 22.2044C17.6838 21.9256 18.5074 22.1266 19.0121 22.308C18.7607 22.8784 18.3062 23.5932 17.6696 23.8505C16.9791 24.1296 16.142 23.9028 15.6337 23.706C15.8819 23.1792 16.3407 22.4682 16.9935 22.2044ZM13.7785 20.1362C13.6042 19.4119 13.9244 18.6268 14.1779 18.1547C14.7051 18.4874 15.3455 19.0421 15.5063 19.7095C15.6807 20.4334 15.3332 21.2281 15.0639 21.702C14.5792 21.379 13.9434 20.8206 13.7785 20.1362ZM15.0452 24.7286C15.3894 24.873 15.9026 25.0495 16.4778 25.1178C15.9182 25.2345 15.2932 25.4652 14.7789 25.9086C14.8442 25.5105 14.9326 25.1164 15.0452 24.7286ZM14.7869 28.8037C14.8063 28.2217 14.9462 27.3872 15.4413 26.8866C15.9657 26.3566 16.8015 26.2154 17.3362 26.1826C17.3311 26.8059 17.1967 27.6423 16.7137 28.1307C16.1902 28.6602 15.3316 28.7832 14.7869 28.8037ZM14.2128 35.6855C13.4687 35.6931 12.7577 35.2144 12.339 34.8629C12.7425 34.469 13.4391 33.9163 14.1784 33.9062C14.9219 33.8982 15.6213 34.4104 16.0239 34.7779C15.6019 35.1791 14.9169 35.6758 14.2128 35.6855ZM15.5842 30.911C15.5143 31.0728 15.4623 31.2371 15.4242 31.4017C15.4038 31.3532 15.3834 31.3046 15.3637 31.2556C15.1931 30.8323 15.0545 30.4011 14.9452 29.9654C15.4413 29.936 16.1003 29.8348 16.7093 29.5404C16.2663 29.8748 15.8381 30.3236 15.5842 30.911ZM16.7447 33.3985C16.5511 32.8491 16.3781 32.0209 16.6572 31.3746C16.9529 30.6906 17.6801 30.2551 18.1663 30.03C18.3881 30.6127 18.567 31.4409 18.2949 32.071C17.9997 32.7546 17.2446 33.1814 16.7447 33.3985ZM17.3786 34.3931C17.9299 34.1313 18.6428 33.6875 19.1081 33.0035C18.8204 33.5551 18.5914 34.246 18.6601 34.9878C18.6808 35.211 18.7288 35.4245 18.7964 35.6277C18.289 35.2639 17.8138 34.8511 17.3786 34.3931ZM18.3506 39.1078C17.6589 39.3832 16.8233 39.1877 16.3065 39.009C16.5426 38.497 16.9957 37.732 17.6827 37.4583C18.3745 37.1826 19.2104 37.4137 19.7177 37.613C19.4669 38.1386 19.0046 38.8473 18.3506 39.1078ZM19.8239 34.88C19.7554 34.1391 20.1846 33.4079 20.5035 32.9764C20.9776 33.3811 21.5315 34.0218 21.595 34.7056C21.6639 35.447 21.206 36.1837 20.8714 36.614C20.4381 36.2249 19.889 35.5812 19.8239 34.88ZM20.5527 38.5348C20.6564 38.3553 20.7419 38.1841 20.8103 38.0327C20.8977 38.0638 20.9853 38.0938 21.0729 38.1227C20.9292 38.2123 20.7907 38.3143 20.6607 38.4316C20.6235 38.4653 20.5876 38.4997 20.5527 38.5348ZM22.7458 40.6653C22.1563 41.1969 21.2406 41.3098 20.6666 41.3232C20.7062 40.7427 20.8642 39.8224 21.4438 39.2995C22.003 38.7947 22.8687 38.699 23.4446 38.699C23.4756 38.699 23.5057 38.6993 23.535 38.6998C23.4863 39.3006 23.2971 40.1677 22.7458 40.6653ZM31.509 23.8505C30.8723 23.5932 30.418 22.8783 30.1665 22.3079C30.6704 22.1267 31.4945 21.9254 32.185 22.2043C32.8374 22.468 33.2961 23.1782 33.5444 23.7049C33.0349 23.9009 32.1951 24.1278 31.509 23.8505ZM26.433 40.6654C25.8816 40.1678 25.6924 39.3006 25.6436 38.6998C26.2152 38.6893 27.1456 38.7676 27.7349 39.2995H27.735C28.3142 39.8222 28.4723 40.7418 28.512 41.3232C27.9379 41.3098 27.0223 41.1969 26.433 40.6654ZM28.5181 38.4317C28.3878 38.3141 28.2487 38.2127 28.1046 38.1231C28.1927 38.0941 28.2808 38.0639 28.3688 38.0325C28.4373 38.1842 28.5222 38.3549 28.6261 38.5349C28.5912 38.4998 28.5553 38.4653 28.5181 38.4317ZM29.3548 34.8799C29.2898 35.5812 28.7406 36.225 28.3074 36.614C27.9728 36.1837 27.5149 35.447 27.5837 34.7056C27.6472 34.0218 28.2012 33.3811 28.6753 32.9764C28.9936 33.4071 29.4234 34.1386 29.3548 34.8799ZM32.8721 39.0091C32.3552 39.1878 31.5197 39.383 30.8282 39.1079C30.1745 38.8475 29.7124 38.1397 29.4614 37.614C29.9698 37.4155 30.8084 37.1843 31.496 37.4583H31.4961C32.1828 37.7318 32.6357 38.4963 32.8721 39.0091ZM30.382 35.6283C30.4496 35.4248 30.4979 35.2111 30.5187 34.9877C30.5873 34.2461 30.3584 33.5553 30.071 33.0039C30.5362 33.6876 31.249 34.1315 31.8002 34.3932C31.3648 34.8514 30.8895 35.2644 30.382 35.6283ZM32.4344 33.3973C31.9341 33.1789 31.1771 32.7504 30.8837 32.071C30.6116 31.4409 30.7905 30.6126 31.0123 30.0298C31.4981 30.2548 32.2257 30.6902 32.5214 31.3744C32.8004 32.0203 32.6279 32.848 32.4344 33.3973ZM32.4698 29.5407C33.0784 29.8348 33.7375 29.9363 34.2335 29.9657C34.1242 30.4014 33.9856 30.8325 33.8151 31.2556C33.7953 31.3046 33.775 31.3532 33.7545 31.4017C33.7162 31.237 33.6643 31.0727 33.5944 30.9109C33.3406 30.3236 32.9126 29.8749 32.4698 29.5407ZM35.0003 33.9062C35.7393 33.9164 36.4355 34.4686 36.8396 34.863C36.4209 35.2145 35.7116 35.6962 34.966 35.6855C34.2618 35.6759 33.5767 35.1792 33.1548 34.7779C33.5574 34.4105 34.2545 33.8988 35.0003 33.9062ZM32.465 28.1307C31.9819 27.6423 31.8476 26.8058 31.8425 26.1824C32.3767 26.2153 33.2129 26.3564 33.7373 26.8864C34.2322 27.3868 34.3723 28.2205 34.3918 28.8024C33.8463 28.7809 32.9854 28.657 32.465 28.1307ZM32.7003 25.1178C33.2756 25.0496 33.7892 24.8731 34.1335 24.7287C34.246 25.1163 34.3344 25.5103 34.3997 25.9083C33.8853 25.4649 33.2599 25.2344 32.7003 25.1178ZM34.1159 21.7013C33.847 21.2262 33.4991 20.429 33.6725 19.7095C33.8332 19.0421 34.4736 18.4874 35.0008 18.1547C35.2542 18.6264 35.5745 19.4118 35.4002 20.1361C35.2354 20.8201 34.6004 21.3782 34.1159 21.7013ZM35.9881 24.2984C36.378 23.7334 37.175 23.4459 37.7866 23.3249C37.8536 23.856 37.8702 24.7039 37.4472 25.3173C37.0475 25.8965 36.2544 26.1891 35.6861 26.3165C35.606 25.7765 35.5678 24.9075 35.9881 24.2984ZM37.1066 31.1825C36.5055 31.5482 35.662 31.4919 35.0912 31.3765C35.2383 30.8508 35.5577 30.0418 36.19 29.6571H36.1901C36.8207 29.2732 37.7041 29.3708 38.2564 29.4901C38.0886 30.0104 37.7424 30.7953 37.1066 31.1825Z" fill="white"/>
</svg>