<svg xmlns="http://www.w3.org/2000/svg" width="89" height="115" viewBox="0 0 89 115" fill="none">
<path d="M44.5 0C19.9626 0 0 19.907 0 44.3758C0 52.8252 2.30891 61.7957 6.86232 71.0377C10.4729 78.3661 15.4984 85.8869 21.7994 93.3911C32.4962 106.131 43.0231 114.306 43.4659 114.648C43.7702 114.883 44.1353 115 44.5 115C44.8647 115 45.2298 114.883 45.5341 114.648C45.9771 114.306 56.5038 106.131 67.2006 93.3911C73.5014 85.8867 78.5271 78.3658 82.1377 71.0377C86.6911 61.7957 89 52.8252 89 44.3758C89 19.907 69.0374 0 44.5 0ZM44.5 29.0338C52.9831 29.0338 59.8849 35.9161 59.8849 44.3758C59.8849 52.8353 52.9834 59.7178 44.5 59.7178C36.0166 59.7178 29.1151 52.8355 29.1151 44.3758C29.1151 35.9161 36.0166 29.0338 44.5 29.0338Z" fill="#3F51B5" fill-opacity="0.85"/>
<path d="M44.8962 0C43.2413 0 41.6082 0.0952347 40 0.274923C62.023 2.73373 79.2077 21.572 79.2077 44.376C79.2077 52.8254 76.9195 61.7959 72.4065 71.0379C68.828 78.3663 63.8473 85.8871 57.6023 93.3914C50.8004 101.565 44.0682 107.86 40 111.412C42.2725 113.397 43.7139 114.525 43.8713 114.648C44.1729 114.883 44.5347 115 44.8962 115C45.2576 115 45.6194 114.883 45.921 114.648C46.3601 114.306 56.7931 106.131 67.3947 93.3911C73.6394 85.8867 78.6204 78.3658 82.1988 71.0377C86.7116 61.7957 89 52.8252 89 44.3758C89 19.907 69.2151 0 44.8962 0Z" fill="#3F51B5"/>
</svg>